<svg width="72" height="73" viewBox="0 0 72 73" fill="none" xmlns="http://www.w3.org/2000/svg">
<rect y="0.959961" width="72" height="72" rx="36" fill="white"/>
<g clip-path="url(#clip0_45_356)">
<g clip-path="url(#clip1_45_356)">
<path d="M35.9037 36.6644C38.5041 36.6644 40.5267 34.5297 40.5267 31.9099C40.5267 29.2901 38.4078 27.2524 35.8074 27.2524C33.2069 27.2524 31.1844 29.3871 31.1844 31.9099C31.1844 34.5297 33.3032 36.6644 35.9037 36.6644ZM35.8074 29.193C35.9037 29.193 35.9037 29.193 35.8074 29.193C37.3484 29.193 38.6005 30.4544 38.6005 32.0069C38.6005 33.5594 37.3484 34.7238 35.8074 34.7238C34.2664 34.7238 33.1106 33.4624 33.1106 32.0069C33.1106 30.4544 34.3627 29.193 35.8074 29.193V29.193Z" fill="#F09A6F"/>
<path d="M50.158 36.082C48.328 34.4325 45.9202 33.5592 43.4161 33.6562H42.6456C42.4529 34.4325 42.164 35.1117 41.7787 35.6939C42.3566 35.5968 42.8382 35.5968 43.4161 35.5968C45.246 35.4998 47.076 36.082 48.5206 37.1493V44.1355H50.4469V36.3731L50.158 36.082Z" fill="#F09A6F"/>
<path d="M41.2009 27.4459C41.6825 26.2815 43.0309 25.6993 44.283 26.1845C45.4387 26.6696 46.0166 28.028 45.535 29.2894C45.1498 30.1627 44.283 30.7449 43.4161 30.7449C43.2235 30.7449 42.9346 30.7449 42.7419 30.6479C42.8383 31.133 42.8383 31.6182 42.8383 32.0063V32.5885C43.0309 32.5885 43.2235 32.6855 43.4161 32.6855C45.824 32.6855 47.7502 30.7449 47.7502 28.4162C47.7502 25.9904 45.824 24.0498 43.5124 24.0498C41.9714 24.0498 40.6231 24.826 39.8526 26.1845C40.3341 26.4756 40.8157 26.8637 41.2009 27.4459V27.4459Z" fill="#F09A6F"/>
<path d="M30.2212 35.7906C29.836 35.2084 29.547 34.5292 29.3544 33.7529H28.5839C26.0798 33.6559 23.6719 34.5292 21.842 36.0816L21.5531 36.3727V44.1352H23.4793V37.149C25.0203 36.0816 26.754 35.4995 28.5839 35.5965C29.1618 35.5965 29.7397 35.6935 30.2212 35.7906Z" fill="#F09A6F"/>
<path d="M28.5839 32.5891C28.7765 32.5891 28.9692 32.5891 29.1618 32.4921V31.9099C29.1618 31.4247 29.1618 30.9396 29.2581 30.5515C29.0655 30.6485 28.7765 30.6485 28.5839 30.6485C27.3318 30.6485 26.2724 29.5812 26.2724 28.3198C26.2724 27.0584 27.3318 25.9911 28.5839 25.9911C29.547 25.9911 30.4139 26.5732 30.7991 27.4465C31.1844 26.9614 31.7622 26.4762 32.2438 26.0881C30.9917 24.0504 28.3913 23.3712 26.3687 24.6326C24.3461 25.894 23.672 28.5138 24.924 30.5515C25.6945 31.8129 27.0429 32.5891 28.5839 32.5891V32.5891Z" fill="#F09A6F"/>
<path d="M43.8013 41.9034L43.6087 41.6124C41.6824 39.4777 38.9856 38.2163 36.0962 38.3133C33.2069 38.2163 30.4138 39.4777 28.4875 41.6124L28.2949 41.9034V49.2777C28.2949 50.151 28.9691 50.9273 29.9322 50.9273H42.2603C43.1271 50.9273 43.8976 50.151 43.8976 49.2777V41.9034H43.8013ZM41.875 48.9867H30.2212V42.5827C31.7622 41.0302 33.881 40.2539 36.0962 40.2539C38.2151 40.1569 40.334 41.0302 41.875 42.5827V48.9867Z" fill="#F09A6F"/>
</g>
</g>
<defs>
<clipPath id="clip0_45_356">
<rect width="32" height="26.353" fill="white" transform="translate(20 23.96)"/>
</clipPath>
<clipPath id="clip1_45_356">
<rect width="29" height="27" fill="white" transform="translate(21.5 23.96)"/>
</clipPath>
</defs>
</svg>
