<svg width="73" height="73" viewBox="0 0 73 73" fill="none" xmlns="http://www.w3.org/2000/svg">
<rect x="0.5" y="0.959961" width="72" height="72" rx="36" fill="white"/>
<g clip-path="url(#clip0_45_393)">
<g clip-path="url(#clip1_45_393)">
<path d="M40.428 30.7095H48.4266V33.0063H40.428V30.7095Z" fill="#F09A6F"/>
<path d="M40.428 36.4517H48.4266V38.7485H40.428V36.4517Z" fill="#F09A6F"/>
<path d="M40.428 42.1938H48.4266V44.4907H40.428V42.1938Z" fill="#F09A6F"/>
<path d="M50.7119 24.9673H23.2882C22.6823 24.9679 22.1014 25.2101 21.6729 25.6407C21.2445 26.0713 21.0035 26.6552 21.0029 27.2642V47.9361C21.0035 48.5451 21.2445 49.1289 21.6729 49.5595C22.1014 49.9902 22.6823 50.2323 23.2882 50.233H50.7119C51.3177 50.232 51.8985 49.9898 52.3269 49.5592C52.7553 49.1287 52.9963 48.545 52.9972 47.9361V27.2642C52.9966 26.6552 52.7557 26.0713 52.3272 25.6407C51.8988 25.2101 51.3178 24.9679 50.7119 24.9673ZM23.2882 27.2642H35.8574V47.9361H23.2882V27.2642ZM38.1427 47.9361V27.2642H50.7119L50.7142 47.9361H38.1427Z" fill="#F09A6F"/>
</g>
</g>
<defs>
<clipPath id="clip0_45_393">
<rect width="32" height="26.353" fill="white" transform="translate(20.5 23.96)"/>
</clipPath>
<clipPath id="clip1_45_393">
<rect width="32" height="25.28" fill="white" transform="translate(21 24.96)"/>
</clipPath>
</defs>
</svg>
