<svg width="42" height="43" viewBox="0 0 42 43" fill="none" xmlns="http://www.w3.org/2000/svg">
<path d="M33.25 5.65039C34.1783 5.65039 35.0685 6.01914 35.7249 6.67552C36.3813 7.33189 36.75 8.22213 36.75 9.15039V33.6504C36.75 34.5786 36.3813 35.4689 35.7249 36.1253C35.0685 36.7816 34.1783 37.1504 33.25 37.1504H8.75C7.82174 37.1504 6.9315 36.7816 6.27513 36.1253C5.61875 35.4689 5.25 34.5786 5.25 33.6504V9.15039C5.25 8.22213 5.61875 7.33189 6.27513 6.67552C6.9315 6.01914 7.82174 5.65039 8.75 5.65039H33.25ZM32.375 32.7754V23.5004C32.375 21.9873 31.7739 20.5362 30.704 19.4663C29.6341 18.3965 28.1831 17.7954 26.67 17.7954C25.1825 17.7954 23.45 18.7054 22.61 20.0704V18.1279H17.7275V32.7754H22.61V24.1479C22.61 22.8004 23.695 21.6979 25.0425 21.6979C25.6923 21.6979 26.3154 21.956 26.7749 22.4155C27.2344 22.8749 27.4925 23.4981 27.4925 24.1479V32.7754H32.375ZM12.04 15.3804C12.8197 15.3804 13.5675 15.0706 14.1189 14.5193C14.6703 13.9679 14.98 13.2201 14.98 12.4404C14.98 10.8129 13.6675 9.48289 12.04 9.48289C11.2556 9.48289 10.5034 9.79448 9.94873 10.3491C9.39409 10.9038 9.0825 11.656 9.0825 12.4404C9.0825 14.0679 10.4125 15.3804 12.04 15.3804ZM14.4725 32.7754V18.1279H9.625V32.7754H14.4725Z" fill="black"/>
</svg>
