<svg width="81" height="58" viewBox="0 0 81 58" fill="none" xmlns="http://www.w3.org/2000/svg">
<mask id="path-1-inside-1_18_640" fill="white">
<path d="M0.5 29C0.5 12.9837 13.4837 0 29.5 0H51.5C67.5163 0 80.5 12.9837 80.5 29V29C80.5 45.0163 67.5163 58 51.5 58H29.5C13.4837 58 0.5 45.0163 0.5 29V29Z"/>
</mask>
<path d="M0.5 29C0.5 12.9837 13.4837 0 29.5 0H51.5C67.5163 0 80.5 12.9837 80.5 29V29C80.5 45.0163 67.5163 58 51.5 58H29.5C13.4837 58 0.5 45.0163 0.5 29V29Z" fill="#6AABFB"/>
<path d="M22.0124 11.1775L68.7452 38.242V42.2026L60.7664 46.8232L57.3467 44.8429L53.9271 46.8232L34.5501 35.6017V31.6411L36.8297 30.321L31.1305 33.6215L14.0328 23.7201V19.7595L14.0328 15.7989L16.3124 14.4787L22.0124 11.1775Z" stroke="black" stroke-width="2"/>
<path fill-rule="evenodd" clip-rule="evenodd" d="M14.0335 15.7993V19.7599L17.4531 21.7402V17.7796L14.0335 15.7993Z" fill="#078D13"/>
<path fill-rule="evenodd" clip-rule="evenodd" d="M34.5509 27.6809V31.6415L37.9705 33.6218V29.6612L34.5509 27.6809Z" fill="#078D13"/>
<path fill-rule="evenodd" clip-rule="evenodd" d="M14.0333 19.7594L17.4526 17.7791L14.0333 15.7988L22.0122 11.1782L53.9277 29.6608L68.7456 38.242L60.7667 42.8626L57.3471 40.8824L53.9275 42.8626L34.5505 31.6411L37.9701 29.6608L34.5505 27.6806L31.1309 29.6608L14.0333 19.7594Z" fill="#2EC02A"/>
<path fill-rule="evenodd" clip-rule="evenodd" d="M14.0335 19.7598V23.7203L31.1312 33.6218V29.6612L14.0335 19.7598Z" fill="#078D13"/>
<path fill-rule="evenodd" clip-rule="evenodd" d="M31.1316 29.6612L34.5512 27.6809V31.6415L31.1316 33.6218V29.6612Z" fill="#35FF46"/>
<path fill-rule="evenodd" clip-rule="evenodd" d="M53.9278 42.8619L57.3475 40.8816V44.8422L53.9278 46.8225V42.8619Z" fill="#35FF46"/>
<path fill-rule="evenodd" clip-rule="evenodd" d="M34.5509 31.6416V35.6022L53.9279 46.8237V42.8631L34.5509 31.6416Z" fill="#078D13"/>
<path d="M36.8297 32.9622L40.2494 30.9819L41.3892 31.642L37.9696 33.6223L36.8297 32.9622Z" fill="#FFE900"/>
<path d="M39.1105 34.2813L42.5301 32.301L43.67 32.9611L40.2503 34.9414L39.1105 34.2813Z" fill="#FFE900"/>
<path d="M41.3894 35.6021L44.809 33.6218L45.9488 34.2819L42.5292 36.2622L41.3894 35.6021Z" fill="#FFE900"/>
<path d="M43.6701 36.9229L47.0897 34.9426L48.2296 35.6027L44.81 37.583L43.6701 36.9229Z" fill="#FFE900"/>
<path d="M45.949 38.2418L49.3686 36.2615L50.5085 36.9216L47.0888 38.9019L45.949 38.2418Z" fill="#FFE900"/>
<path d="M48.2297 39.5626L51.6493 37.5823L52.7892 38.2424L49.3696 40.2227L48.2297 39.5626Z" fill="#FFE900"/>
<path d="M36.8297 32.9624L37.9696 33.6225V37.5831L36.8297 36.923V32.9624Z" fill="#B6820E"/>
<path d="M39.1105 34.2812L40.2503 34.9413V38.9019L39.1105 38.2418V34.2812Z" fill="#B6820E"/>
<path d="M41.3894 35.6021L42.5292 36.2621V40.2227L41.3894 39.5626V35.6021Z" fill="#B6820E"/>
<path d="M43.6701 36.9229L44.81 37.5829V41.5435L43.6701 40.8834V36.9229Z" fill="#B6820E"/>
<path d="M45.949 38.2419L47.0888 38.902V42.8626L45.949 42.2025V38.2419Z" fill="#B6820E"/>
<path d="M48.2297 39.5627L49.3696 40.2228V44.1834L48.2297 43.5233V39.5627Z" fill="#B6820E"/>
<path d="M50.5086 40.8834L53.9282 38.9031L55.0681 39.5632L51.6485 41.5435L50.5086 40.8834Z" fill="#FFE900"/>
<path d="M50.5086 40.8835L51.6485 41.5436V45.5042L50.5086 44.8441V40.8835Z" fill="#B6820E"/>
<path fill-rule="evenodd" clip-rule="evenodd" d="M60.7664 42.8618L68.7452 38.2412V42.2018L60.7664 46.8224V42.8618Z" fill="#35FF46"/>
<path fill-rule="evenodd" clip-rule="evenodd" d="M57.3471 40.8835V44.8441L60.7667 46.8244V42.8638L57.3471 40.8835Z" fill="#078D13"/>
<path d="M16.3131 21.0789L19.7327 19.0986L20.8726 19.7587L17.4531 21.739L16.3131 21.0789Z" fill="#FFE900"/>
<path d="M18.5929 22.399L22.0124 20.4189L23.1522 21.079L19.7328 23.0593L18.5929 22.399Z" fill="#FFE900"/>
<path d="M20.8726 23.7193L24.2922 21.739L25.432 22.399L22.0124 24.3799L20.8726 23.7193Z" fill="#FFE900"/>
<path d="M23.1522 25.0394L26.5718 23.0593L27.7112 23.7194L24.2922 25.6989L23.1522 25.0394Z" fill="#FFE900"/>
<path d="M25.432 26.3602L28.8516 24.3799L29.9915 25.04L26.5718 27.0203L25.432 26.3602Z" fill="#FFE900"/>
<path d="M27.7112 27.679L31.1309 25.6987L32.2707 26.3588L28.8511 28.3391L27.7112 27.679Z" fill="#FFE900"/>
<path d="M16.3131 21.0789L17.453 21.7389V25.6995L16.3131 25.0394V21.0789Z" fill="#B6820E"/>
<path d="M18.5929 22.3989L19.7328 23.059V27.0196L18.5929 26.3595V22.3989Z" fill="#B6820E"/>
<path d="M20.8726 23.7192L22.0124 24.3793V28.3399L20.8726 27.6798V23.7192Z" fill="#B6820E"/>
<path d="M23.1522 25.0393L24.292 25.6994V29.66L23.1522 28.9999V25.0393Z" fill="#B6820E"/>
<path d="M25.432 26.3601L26.5718 27.0202V30.9808L25.432 30.3207V26.3601Z" fill="#B6820E"/>
<path d="M27.7112 27.679L28.8511 28.339V32.2996L27.7112 31.6395V27.679Z" fill="#B6820E"/>
<path d="M41.3901 23.7193L35.6909 27.0198L32.2712 25.0396L37.9705 21.739L41.3901 23.7193Z" fill="black"/>
<path d="M35.6901 20.419L29.992 23.7194L26.5718 21.7391L32.2709 18.4387L35.6901 20.419Z" fill="black"/>
<path d="M51.6479 29.6595L45.9486 32.96L42.529 30.9797L48.2282 27.6792L51.6479 29.6595Z" fill="black"/>
<path d="M57.3478 32.9605L51.6479 36.2616L48.2286 34.2813L53.9286 30.9802L57.3478 32.9605Z" fill="black"/>
<path d="M29.992 17.1185L24.2927 20.419L20.8731 18.4387L26.5724 15.1382L29.992 17.1185Z" fill="black"/>
<path d="M63.0478 36.2615L57.3486 39.5621L53.929 37.5818L59.6282 34.2812L63.0478 36.2615Z" fill="black"/>
<path d="M0.5 0H80.5H0.5ZM80.5 29C80.5 45.5685 67.0685 59 50.5 59H30.5C13.9315 59 0.5 45.5685 0.5 29C0.5 44.464 13.4837 57 29.5 57H51.5C67.5163 57 80.5 44.464 80.5 29ZM0.5 58V0V58ZM80.5 0V58V0Z" fill="#051711" mask="url(#path-1-inside-1_18_640)"/>
</svg>
