<svg width="73" height="73" viewBox="0 0 73 73" fill="none" xmlns="http://www.w3.org/2000/svg">
<rect x="0.5" y="0.959961" width="72" height="72" rx="36" fill="white"/>
<g clip-path="url(#clip0_45_377)">
<path d="M31.0426 43.6224C30.5019 43.0793 30.7837 43.2324 29.4795 42.8818C28.8878 42.7224 28.3676 42.4161 27.8972 42.0493L25.0742 49.0018C24.8011 49.6749 25.3113 50.4061 26.0343 50.3786L29.3128 50.253L31.5677 52.6455C32.0655 53.173 32.9391 53.0086 33.2123 52.3355L36.4509 44.3593C35.7764 44.7368 35.0279 44.958 34.2539 44.958C33.0405 44.958 31.9006 44.4836 31.0426 43.6224V43.6224ZM48.8182 49.0018L45.9952 42.0493C45.5248 42.4168 45.0046 42.7224 44.4129 42.8818C43.1019 43.2343 43.3893 43.0805 42.8499 43.6224C41.9918 44.4836 40.8513 44.958 39.6379 44.958C38.8639 44.958 38.1154 44.7361 37.4409 44.3593L40.6795 52.3355C40.9527 53.0086 41.8269 53.173 42.3241 52.6455L44.5796 50.253L47.8581 50.3786C48.5811 50.4061 49.0914 49.6743 48.8182 49.0018V49.0018ZM41.364 42.208C42.3147 41.2361 42.4236 41.3199 43.7776 40.9493C44.6419 40.7124 45.3176 40.0218 45.5491 39.138C46.0145 37.363 45.8938 37.5774 47.1637 36.2786C47.7965 35.6318 48.0435 34.6886 47.8121 33.8049C47.3473 32.0311 47.3467 32.2786 47.8121 30.503C48.0435 29.6193 47.7965 28.6761 47.1637 28.0293C45.8938 26.7305 46.0145 26.9443 45.5491 25.1699C45.3176 24.2861 44.6419 23.5955 43.7776 23.3586C42.0428 22.883 42.2519 23.0074 40.9807 21.708C40.3479 21.0611 39.4251 20.808 38.5609 21.0449C36.8267 21.5199 37.0688 21.5205 35.3315 21.0449C34.4673 20.808 33.5445 21.0605 32.9117 21.708C31.6418 23.0068 31.8508 22.883 30.1155 23.3586C29.2512 23.5955 28.5755 24.2861 28.344 25.1699C27.8792 26.9443 27.9993 26.7305 26.7293 28.0293C26.0965 28.6761 25.8489 29.6193 26.081 30.503C26.5458 32.2755 26.5464 32.028 26.081 33.8043C25.8495 34.688 26.0965 35.6311 26.7293 36.2786C27.9993 37.5774 27.8786 37.363 28.344 39.138C28.5755 40.0218 29.2512 40.7124 30.1155 40.9493C31.508 41.3305 31.6119 41.2705 32.5284 42.208C33.3516 43.0499 34.634 43.2005 35.6234 42.5718C36.019 42.3195 36.4779 42.1855 36.9465 42.1855C37.4151 42.1855 37.8741 42.3195 38.2697 42.5718C39.2584 43.2005 40.5408 43.0499 41.364 42.208ZM31.0762 31.9555C31.0762 28.6411 33.7044 25.9543 36.9462 25.9543C40.188 25.9543 42.8163 28.6411 42.8163 31.9555C42.8163 35.2699 40.188 37.9568 36.9462 37.9568C33.7044 37.9568 31.0762 35.2699 31.0762 31.9555V31.9555Z" fill="#F09A6F"/>
</g>
<defs>
<clipPath id="clip0_45_377">
<rect width="23.8933" height="32" fill="white" transform="translate(25 20.96)"/>
</clipPath>
</defs>
</svg>
