<svg width="42" height="43" viewBox="0 0 42 43" fill="none" xmlns="http://www.w3.org/2000/svg">
<path d="M21 3.90039C18.7019 3.90039 16.4262 4.35304 14.303 5.2325C12.1798 6.11196 10.2507 7.401 8.62563 9.02602C5.34374 12.3079 3.5 16.7591 3.5 21.4004C3.5 29.1354 8.5225 35.6979 15.47 38.0254C16.345 38.1654 16.625 37.6229 16.625 37.1504V34.1929C11.7775 35.2429 10.745 31.8479 10.745 31.8479C9.94 29.8179 8.8025 29.2754 8.8025 29.2754C7.21 28.1904 8.925 28.2254 8.925 28.2254C10.675 28.3479 11.6025 30.0279 11.6025 30.0279C13.125 32.6879 15.6975 31.9004 16.695 31.4804C16.8525 30.3429 17.3075 29.5729 17.7975 29.1354C13.9125 28.6979 9.835 27.1929 9.835 20.5254C9.835 18.5829 10.5 17.0254 11.6375 15.7829C11.4625 15.3454 10.85 13.5254 11.8125 11.1629C11.8125 11.1629 13.2825 10.6904 16.625 12.9479C18.0075 12.5629 19.5125 12.3704 21 12.3704C22.4875 12.3704 23.9925 12.5629 25.375 12.9479C28.7175 10.6904 30.1875 11.1629 30.1875 11.1629C31.15 13.5254 30.5375 15.3454 30.3625 15.7829C31.5 17.0254 32.165 18.5829 32.165 20.5254C32.165 27.2104 28.07 28.6804 24.1675 29.1179C24.7975 29.6604 25.375 30.7279 25.375 32.3554V37.1504C25.375 37.6229 25.655 38.1829 26.5475 38.0254C33.495 35.6804 38.5 29.1354 38.5 21.4004C38.5 19.1023 38.0474 16.8266 37.1679 14.7034C36.2884 12.5802 34.9994 10.651 33.3744 9.02602C31.7493 7.401 29.8202 6.11196 27.697 5.2325C25.5738 4.35304 23.2981 3.90039 21 3.90039Z" fill="black"/>
</svg>
